<svg xmlns="http://www.w3.org/2000/svg" version="1.1" style="fill: indigo;" width="512" height="512"><rect id="backgroundrect" width="100%" height="100%" x="0" y="0" fill="none" stroke="none"/>
<g class="currentLayer" style=""><title>Layer 1</title><g id="svg_1" class="selected" fill="#1aebeb" fill-opacity="1">
    <g id="svg_2" fill="#1aebeb" fill-opacity="1">
      <path d="M426.667,0h-320C83.103,0,64,19.103,64,42.667v42.667H53.333c-5.896,0-10.667,4.771-10.667,10.667 s4.771,10.667,10.667,10.667H96c5.896,0,10.667,4.771,10.667,10.667c0,5.896-4.771,10.667-10.667,10.667H74.667 C68.776,128,64,132.776,64,138.667V192H53.333c-5.896,0-10.667,4.771-10.667,10.667c0,5.896,4.771,10.667,10.667,10.667H96 c5.896,0,10.667,4.771,10.667,10.667S101.896,234.667,96,234.667H74.667c-5.891,0-10.667,4.776-10.667,10.667v53.333H53.333 c-5.896,0-10.667,4.771-10.667,10.667c0,5.896,4.771,10.667,10.667,10.667H96c5.896,0,10.667,4.771,10.667,10.667 c0,5.896-4.771,10.667-10.667,10.667H74.667C68.776,341.333,64,346.109,64,352v53.333H53.333c-5.896,0-10.667,4.771-10.667,10.667 c0,5.896,4.771,10.667,10.667,10.667H96c5.896,0,10.667,4.771,10.667,10.667c0,5.896-4.771,10.667-10.667,10.667H74.667 C68.776,448,64,452.776,64,458.667v10.667C64,492.898,83.103,512,106.667,512h320c23.564,0,42.667-19.102,42.667-42.667V42.667 C469.333,19.103,450.231,0,426.667,0z M277.333,149.333c29.406,0,53.333,23.927,53.333,53.333S306.74,256,277.333,256 S224,232.073,224,202.667S247.927,149.333,277.333,149.333z M373.333,338c0,13.604-10.25,24.667-22.854,24.667H204.187 c-12.604,0-22.854-11.063-22.854-24.667v-6.833c0-17.823,8.823-34.104,23.042-42.49c17.031-10.042,43.51-22.01,72.958-22.01 c29.448,0,55.927,11.969,72.958,22.01c14.219,8.385,23.042,24.667,23.042,42.49V338z" id="svg_3" fill="#1aebeb" fill-opacity="1"/>
    </g>
  </g><g id="svg_4"/><g id="svg_5"/><g id="svg_6"/><g id="svg_7"/><g id="svg_8"/><g id="svg_9"/><g id="svg_10"/><g id="svg_11"/><g id="svg_12"/><g id="svg_13"/><g id="svg_14"/><g id="svg_15"/><g id="svg_16"/><g id="svg_17"/><g id="svg_18"/></g></svg>